<svg width="300" height="300" viewBox="0 0 300 300" fill="none" xmlns="http://www.w3.org/2000/svg">
<path d="M215.701 46.6981H225L231.267 47.5067L238.544 49.3262L243.396 50.9434L247.641 52.7628L251.28 54.7844L256.132 58.0189L258.76 60.0404L261.59 62.4663L263.814 64.4879L265.229 66.1051L267.251 68.3288L269.879 71.7655L271.496 74.3935L273.922 78.6388L275.539 81.6712L277.358 85.9165L278.976 90.7682L279.987 95.0135L280.593 98.8545L280.997 102.898V112.601L280.391 117.857L279.38 122.911L277.965 127.763L275.943 132.615L274.326 136.051L271.698 140.499L269.474 143.733L267.453 146.361L265.229 148.989L262.803 151.617L262.197 152.426H261.792L261.388 153.235L236.523 178.1L235.108 179.717L230.66 184.164L229.043 185.58L220.35 194.272L220.148 194.677H219.744L219.34 195.485L192.857 221.968L191.24 223.383L188.41 225.809L184.367 228.841L179.717 231.873L176.078 233.895L172.237 235.512L167.385 237.129L162.129 238.342L157.682 239.151L153.841 239.555L150 239.757H146.361L141.307 239.353L138.073 238.949L130.997 237.129L127.358 235.916L122.507 233.693L119.272 232.075L118.261 232.278L114.825 234.097L110.58 235.916L105.93 237.332L99.8652 238.747L94.0027 239.555L91.3747 239.757H85.9164L79.0431 239.151L73.3827 238.14L68.9353 236.927L63.2749 234.704L58.8275 232.48L54.3801 229.852L50.5391 227.022L47.9111 224.596L45.8895 222.776L43.4636 220.35L42.0485 218.733L40.027 216.509L37.8032 213.477L34.7709 208.221L32.1429 202.763L30.5256 198.518L28.9084 192.655L27.8976 187.399L27.2911 181.941V174.663L27.8976 169.205L28.9084 164.151L30.1213 159.501L31.5364 155.256L33.9623 150L36.5903 145.35L39.0162 141.712L41.2399 138.881L43.6658 136.051L46.496 133.019L55.1887 124.326L55.7951 123.518H56.1995V123.113L57.2102 122.102L57.8167 121.9L58.221 121.092H58.6253L59.0296 120.283H59.434L59.8383 119.474H60.2426L60.6469 118.666H61.0512L61.4555 117.857L63.0728 116.24H63.4771L63.6792 115.633L65.2965 114.218L86.3208 93.1941L87.938 91.779L90.9703 89.3531L93.8005 87.3315L98.0458 84.5014L101.28 82.6819L105.526 80.6604L110.377 78.841L115.027 77.628L120.283 76.6173L123.113 76.2129L125.741 76.0108H131.806L137.062 76.4151L142.722 77.2237L147.776 78.4367L151.819 79.8518L154.65 81.0647L157.48 82.4798L158.288 82.2776L159.703 80.8625L161.119 79.2453L165.566 74.7979H165.97L166.173 74.1914L167.385 73.1806L168.801 71.5633L174.259 66.1051L175.876 64.69L177.695 62.8706L179.313 61.4555L181.941 59.2318L185.377 56.8059L189.42 54.3801L193.666 52.1563L198.518 50.3369L203.167 48.9218L210.445 47.3046L215.701 46.6981ZM214.488 63.0728L209.636 63.6793L205.189 64.8922L201.348 66.5094L197.507 68.531L194.272 70.5526L191.442 72.7763L188.612 75.2022L183.76 80.0539L182.143 81.469L174.057 89.5553L172.844 90.566L172.035 91.5768L172.237 92.7898L173.652 94.6092L175.472 96.4286L179.111 100.876L181.132 103.908L183.76 108.558L186.186 113.612L188.005 118.666L189.218 123.315L190.027 127.358L190.431 130.593L190.633 133.827V140.094L190.229 144.946L189.218 150.606L187.803 156.267L186.186 160.714L184.367 164.757L182.749 167.79L179.919 172.035L177.898 174.663L176.078 176.887L173.45 179.919L171.833 181.536V181.941L171.024 182.345L169.609 183.962L151.617 201.954L150.202 203.571L147.372 206.402L145.755 207.817L143.531 209.434L141.509 210.243L140.701 210.445H137.062L135.04 209.636L133.019 207.817L131.806 205.593L131.199 203.369L131.402 201.146L132.008 199.124L133.221 197.102L136.253 193.868L142.925 187.197L144.542 185.782L162.332 167.992L165.97 163.544L167.992 160.512L170.418 156.065L172.237 151.617L173.45 147.17L174.259 142.116L174.461 137.466L174.259 132.615L173.854 129.178L173.046 125.337L171.631 121.092L169.811 117.049L167.79 113.41L165.364 109.973L162.938 107.143L159.299 103.504L157.075 101.685L155.054 100.067L152.022 98.0458L148.585 96.2264L143.733 94.407L139.084 93.1941L134.838 92.5876L132.21 92.3855H125.741L120.889 92.9919L116.038 94.2049L111.792 95.8221L107.547 97.8437L103.706 100.27L100.876 102.493L98.4501 104.717L96.4286 106.536L82.8841 120.081V120.485L82.0755 120.889L62.6685 140.297V140.701L61.8598 141.105V141.509L61.0512 141.914V142.318L60.2426 142.722L58.8275 144.34L56.1995 146.968L54.3801 149.191L52.7628 151.213L50.3369 154.852L47.9111 159.501L45.8895 164.555L45.0809 167.183L44.2722 171.429L43.8679 176.685V179.717L44.4744 186.995L45.6873 191.442L47.5067 196.294L49.124 199.528L50.7412 202.561L53.1671 205.997L55.593 208.827L57.6146 210.849L59.2318 212.264L62.2641 214.69L64.8922 216.509L67.1159 217.722L70.5526 219.542L74.5957 221.159L78.6388 222.17L83.8949 222.978L90.1617 223.181L95.4178 222.574L101.685 221.361L103.504 220.553L103.302 219.34L102.291 217.722L100.067 215.094L97.2372 210.849L95.2156 207.412L93.1941 203.167L91.3747 198.518L89.3531 191.644L88.5445 188.005L87.938 183.76L87.7358 180.323V176.482L88.1402 170.62L88.9488 165.97L89.9596 161.725L91.779 156.267L94.407 150.202L96.4286 146.563L99.4609 142.116L101.482 139.488L101.887 138.679L101.685 137.668L99.8652 135.647L96.0243 131.806L95.2156 130.189V128.571L96.0243 126.954L97.2372 125.943L99.2588 124.933L109.569 122.305L118.261 119.879L126.55 117.453L131.402 116.442H134.636L136.253 117.251L137.062 118.868L137.264 120.485L136.86 123.315L135.243 129.38L132.615 138.679L130.593 146.766L128.167 155.054L127.156 156.873L125.539 157.884L123.72 158.086L121.294 156.873L119.07 155.054L116.846 153.032L114.218 151.011L113.612 151.213L111.186 154.447L108.962 158.086L107.345 161.523L106.132 165.162L104.919 170.418L104.313 175.067V182.345L104.919 187.197L105.93 191.24L107.951 196.496L109.569 199.73L111.792 203.369L113.612 205.795L116.038 208.625L118.059 210.647L123.72 215.094L125.741 216.509L128.571 218.127L133.423 220.35L138.679 221.968L142.116 222.776L144.946 223.181H152.022L157.075 222.574L162.332 221.361L166.173 219.946L171.226 217.52L173.45 216.105L176.28 214.084L178.1 212.668L180.728 210.445L183.962 207.412L195.889 195.485L197.305 193.868L202.763 188.41L204.38 186.995L218.733 172.642L219.744 171.429L221.159 170.216L221.968 169.407V169.003L222.776 168.598L224.394 166.981L225.404 165.768L227.022 164.353L231.671 159.704L233.086 158.086L237.534 153.639L239.151 152.224L248.652 142.722L250.067 141.105L251.887 139.286L253.706 137.062L256.132 134.03L258.76 129.784L260.377 126.954L261.995 122.911L263.208 118.666L263.814 115.633L264.218 111.388V103.504L263.612 98.248L262.399 93.5984L260.579 88.7466L258.76 85.31L255.728 80.4582L253.504 77.8302L252.695 76.8194L251.078 75.4043L249.259 73.5849L245.822 70.9569L241.981 68.531L236.119 65.4987L232.278 64.2857L228.032 63.4771L224.394 63.0728H214.488Z" fill="#117ABB"/>
<path d="M122.507 91.9811H133.423L137.466 92.3854L139.286 92.9919L141.509 93.3962L143.733 94.2048L142.925 94.407L139.084 93.3962L134.838 92.7897L132.21 92.5875H125.741L120.889 93.194L116.038 94.407L111.792 96.0242L107.547 98.0458L103.706 100.472L100.876 102.695L98.4501 104.919L96.4286 106.738L62.8706 140.296L61.8598 141.509L60.4447 142.722L60.0404 143.329H59.6361L59.2318 144.137L56.4016 146.968L54.5822 149.191L52.965 151.213L50.5391 154.852L48.1132 159.501L46.0916 164.555L45.283 167.183L44.4744 171.429L44.0701 176.685V179.717L44.6765 186.995L45.8895 191.442L47.7089 196.294L49.3261 199.528L50.9434 202.561L53.3693 205.997L55.7951 208.827L57.6146 210.647L59.2318 212.062L62.2641 214.488L64.8922 216.307L67.1159 217.52L70.5526 219.34L74.5957 220.957L78.6388 221.968L83.8949 222.776L90.1617 222.978L95.4178 222.372L101.685 221.159L103.302 220.553L103.1 219.34L102.089 217.722L99.8652 215.094L97.035 210.849L95.0135 207.412L92.9919 203.167L91.1725 198.517L89.1509 191.644L88.3423 188.005L87.7358 183.76L87.5337 180.323V176.482L87.938 170.62L88.7466 165.97L89.7574 161.725L91.5768 156.267L94.2048 150.202L96.2264 146.563L99.2588 142.116L101.28 139.488L101.685 138.679L101.482 137.668L99.6631 135.647L95.8221 131.806L95.0135 130.189V128.571L95.8221 126.954L97.2372 125.741L99.2588 124.73L109.569 122.102L118.261 119.676L126.55 117.251L131.402 116.24H134.636L136.253 117.048L137.062 118.261L137.466 120.485L137.062 123.315L135.445 129.38L132.817 138.679L130.795 146.765L128.369 155.054L127.156 157.075L125.539 158.086L123.72 158.288L121.294 157.075L119.07 155.256L116.846 153.234L114.623 151.415L114.42 151.011L115.431 151.415L117.049 152.426L118.666 153.841V154.245L119.474 154.65L119.677 155.256L120.485 155.66L122.507 157.075V157.48L123.922 157.278L124.73 157.075L125.741 156.873L126.752 155.862L127.561 153.841L128.976 149.596L129.38 149.191V148.383L129.987 145.35H130.189L130.593 143.127L131.806 139.892L132.008 138.073L132.817 135.647L133.423 133.221L133.827 132.21L134.434 130.391L135.243 127.763L135.445 125.741L136.051 123.922L136.456 119.676L136.253 118.059L135.445 117.655L135.04 117.048H130.795L129.38 117.251L128.167 117.655L125.741 117.857V118.261L125.337 118.464L123.518 118.666L122.305 119.272L120.889 119.474L119.677 120.081L118.059 120.485H117.251V120.889L115.431 121.294L114.016 121.698L112.197 122.102L109.164 122.911L105.93 123.922L105.121 124.124L102.493 124.326V124.73L99.8652 125.135L99.2588 125.943L98.4501 126.752L97.4394 126.954L97.2372 127.561L96.6307 127.965L96.4286 128.571H96.0243V130.391L97.035 132.21L98.6523 133.625L99.6631 134.636L101.887 137.264L102.089 137.668V139.084L101.482 140.499L100.674 141.712L99.6631 142.924L99.4609 143.531H99.0566L98.6523 144.34L98.0458 145.755L97.035 147.17H96.6307L96.4286 147.978L95.4178 149.191L94.6092 151.415L94.0027 152.022L92.9919 154.65L91.779 157.682L91.1725 159.906L90.9703 160.714L90.7682 161.119H90.3639L90.1617 163.949L89.7574 164.757L89.1509 167.385L88.5445 173.046L88.3423 178.302L88.5445 179.11L88.3423 179.919L88.7466 185.782L89.1509 189.016L89.7574 190.229L89.9596 192.453L90.3639 192.655L90.7682 195.081L91.3747 196.092L91.779 197.911L92.3854 198.922V199.73H92.7898L93.1941 200.539L93.3962 201.954L94.0027 202.358L93.8005 203.369H94.2048L95.0135 205.189V205.997H95.4178L96.2264 207.817L96.6307 208.827L97.035 209.232L98.6523 212.062L99.4609 212.668L100.067 214.084L103.302 218.127L104.111 220.35V221.361L103.706 221.765L100.472 222.776L97.4394 223.383L96.8329 223.585L95.6199 223.787H94.2048L93.8005 223.989H83.6927L83.4906 223.787L79.4474 223.585L78.4367 222.978L76.8194 222.574L74.5957 221.968L72.7763 221.361L70.5526 220.553L69.9461 220.148L68.7332 219.744L66.5094 218.531L66.1051 218.329V217.924L64.8922 217.722L63.6792 216.712L62.6685 216.307V215.903L62.062 215.701V215.296L61.2534 215.094L60.4447 214.286L59.434 213.679L58.0189 212.668L57.0081 211.658L56.4016 211.253V210.849L55.593 210.647L53.5714 208.625L51.752 206.402L51.5499 205.593H51.1456V205.189H50.7412L50.3369 204.582V203.976H49.9326L48.1132 200.741L47.3046 199.326L46.0916 197.305L45.0809 194.07L44.2722 192.048V191.24L43.8679 191.442L43.4636 192.048L43.2615 191.442V190.027L43.6658 189.825V188.207L43.8679 187.601H43.4636L42.8571 184.164V181.536H42.2507L41.8464 179.717L42.0485 176.078V174.057L42.4528 172.035L43.0593 172.237L43.4636 170.62L43.8679 166.779L45.0809 163.544L45.283 163.14L45.6873 161.321H46.0916L46.496 160.108L47.5067 158.086L47.7089 157.278H47.3046L47.1024 156.671L48.1132 154.852L48.5175 155.66L48.9218 155.054L49.124 154.043L49.5283 153.841L49.7305 153.234H50.1348L50.5391 152.224L51.1456 151.415L51.752 150.809L51.9542 150.202L52.5606 150L53.3693 148.787L53.9757 147.574H54.3801L54.7844 146.765L55.7951 145.553H56.1995L56.6038 144.744L57.8167 143.329L59.2318 142.318L60.2426 141.105L61.8598 140.296L63.2749 138.679H63.6792L63.8814 137.871L64.4879 137.668L64.69 137.062L65.4986 136.455H65.903V135.445H66.3073V135.04H66.7116V134.636H67.1159V134.232H67.5202V133.827L68.3288 133.625L68.7332 132.817H69.1375L69.3396 132.412H69.9461L70.1482 131.604L70.7547 131.402L70.9569 130.795H71.5633V130.391L72.372 129.784H72.7763V129.38H73.1806L73.3827 128.369H73.7871V127.965H74.1914V127.561L75.8086 126.348L77.4259 124.73H77.8302L78.2345 123.517L79.0431 123.315L79.2453 122.507L80.6604 121.092L82.0755 119.879L82.2776 119.474H82.6819L83.0863 118.666L85.9164 115.836L87.5337 114.42L89.7574 112.399L89.9596 111.995H90.3639V111.59H90.7682V111.186H91.1725L91.3747 110.377H91.779L92.1833 109.367L93.5984 108.154L94.407 107.143L95.4178 106.334H95.8221L96.2264 105.526L98.0458 103.908H98.4501L98.8544 103.1H99.2588L99.6631 102.291H100.067V101.887L101.078 101.078L102.493 100.269L105.93 98.2479L107.345 97.4393L109.367 96.2264L110.984 96.0242L111.186 95.4177L112.803 94.6091L113.005 94.407L115.229 94.0026L115.836 93.5983L118.059 92.9919L118.868 92.7897L120.081 92.3854L122.102 92.1832L122.507 91.9811Z" fill="#117ABB"/>
<path d="M63.0728 116.24L63.4771 116.442L61.6577 118.261L60.2426 119.879L57.6146 122.507H57.2102L56.8059 123.315H56.4016L55.9973 124.528L55.3908 124.73L54.9865 125.741H54.5822L54.1779 126.55L53.3693 126.954V127.358H52.965L52.5607 128.167H52.1563L51.752 128.976L50.1348 130.391L48.7197 131.806L47.7089 133.019H47.3046L46.9003 133.827L46.496 134.03L46.2938 134.636L45.0809 135.647H44.6766L44.2722 136.456L43.8679 136.86L43.4636 137.871L42.2507 139.286L41.6442 140.296H41.2399L41.4421 140.903L40.8356 141.105L40.4313 141.914L39.6226 142.722H39.2183L39.0162 143.531L38.2076 144.34L38.0054 145.148L37.3989 146.563H36.9946L36.7925 147.978L36.186 148.181L35.9838 149.394H35.3774L35.1752 150.404L34.5687 151.213L34.3666 152.022H33.9623V152.426H33.558L33.3558 153.437L32.9515 154.447H32.5472L32.345 156.065L32.1429 156.469H31.7385L31.3342 158.895L30.7278 160.31L30.3235 161.725L29.5148 164.96L28.7062 171.429V172.641L28.504 173.45L28.3019 175.27V182.345L28.7062 186.792L29.1105 188.208L29.5148 190.633L29.9191 190.836V191.24L30.3235 191.442L30.1213 192.857L31.3342 192.453L31.1321 191.038L31.7385 190.229L32.5472 191.038L32.9515 192.857L33.9623 194.474L34.1644 195.283L35.1752 195.889L35.9838 197.911L35.1752 198.517L35.3774 201.146L35.9838 202.358V203.167H36.3881L37.3989 204.38H36.7925L37.1968 206.199L37.8032 207.21V208.019L38.6119 208.423L39.4205 210.445L39.2183 211.051L38.2076 210.445V210.04L37.3989 209.636V209.232H36.9946L36.5903 208.221L35.7817 207.817L35.5795 208.221L36.186 208.423L36.5903 209.434H36.9946L38.2076 211.051L39.4205 212.264L40.2291 214.286L40.4313 215.094L41.2399 215.499L41.6442 216.914L42.655 217.722L43.0593 218.935L43.8679 219.137L44.4744 219.744L44.8787 219.946V220.553L45.4852 220.755L46.496 221.765V222.17H47.1024V222.776L47.7089 222.574L48.1132 223.585H48.5175L48.9218 224.394L50.3369 225.606H50.7412H50.9434L51.5499 225.404L51.1456 224.596L50.5391 223.585L49.124 222.776V222.372L48.3154 221.968L47.5067 220.957V220.553H47.1024V220.148L46.0916 219.744L44.6766 217.925L44.2722 217.116L43.2615 216.105L43.0593 215.499L42.2507 215.296L41.6442 214.69L41.0377 214.892L40.2291 213.477L40.4313 213.073L41.4421 213.477L41.8464 213.679V214.084L43.0593 213.881L43.4636 214.286L44.6766 214.69L45.0809 215.296L45.6873 215.499L46.2938 216.914L47.3046 217.722L48.3154 218.329L48.7197 219.744L49.7305 220.755L50.9434 221.563L51.1456 222.372L51.9542 222.776L53.1671 224.596L54.9865 225.404L55.1887 226.011L55.9973 226.213L57.0081 227.224L57.4124 227.83H56.8059V228.234L55.3908 228.032V227.628H54.5822L54.3801 228.032L55.3908 228.437V229.043L56.8059 229.245L57.0081 230.256L58.221 230.863V231.267L59.2318 231.671L63.2749 233.693L64.4879 234.097L66.9138 235.108V235.512L67.9245 235.714L70.3504 236.523L73.3828 237.129H76.0108L76.2129 237.736H80.6604L81.0647 237.938H82.6819L83.2884 238.342L87.1294 238.747L90.1617 238.544L91.1725 238.747L95.0135 238.342L96.4286 237.938H98.4501V237.534L99.4609 237.332L98.8545 236.927L102.291 236.119L104.313 235.916H105.121L106.334 236.119L107.345 235.714L108.558 235.916V235.512L109.367 235.108L110.984 234.906L111.59 234.703V234.299L112.803 233.895L113.612 233.288H114.42L114.623 232.884L115.027 233.086V232.682L117.049 231.671H119.879L125.135 234.299L128.571 235.714L131.199 236.523L132.615 236.725L134.434 237.332L139.286 238.342L142.925 238.747L150 238.949L156.065 238.747L156.873 238.342L158.086 238.14L158.288 237.736L158.895 237.938L159.097 238.14L161.119 237.736L161.321 237.534L164.555 237.129L166.375 236.523L167.385 236.321L170.62 235.108L174.259 233.895L175.27 233.491H175.876V233.086L175.472 232.884H176.482L178.302 231.873L179.717 231.065H180.121V230.66L181.132 230.054L183.76 228.234H184.164V227.83L184.973 227.628V227.224L185.984 226.819V226.415L187.399 225.404L188.208 225L189.421 223.585L191.038 222.17L192.453 220.755H192.857L193.261 219.946H193.666V219.542L195.081 218.531L195.283 217.925L196.294 217.52L197.507 216.307L197.911 215.499H198.315L198.518 214.892L199.124 214.69L199.326 214.084L199.933 213.881L200.943 212.871L201.55 212.668L201.954 211.86L202.561 211.051H203.167L203.369 210.243L204.38 209.434H204.784L204.987 208.625L205.795 207.817H206.402L206.806 207.008H207.21L207.412 206.402L208.625 205.391L209.232 204.582H209.636L209.838 203.774H210.445L210.849 202.965H211.253L211.456 202.156L212.668 201.146L214.084 199.528L214.892 198.72H215.297L215.499 198.113L216.105 198.315L215.701 199.124L192.857 221.968L191.24 223.383L188.41 225.809L184.367 228.841L179.717 231.873L176.078 233.895L172.237 235.512L167.385 237.129L162.129 238.342L157.682 239.151L153.841 239.555L150 239.757H146.361L141.307 239.353L138.073 238.949L130.997 237.129L127.358 235.916L122.507 233.693L119.272 232.075L118.261 232.278L114.825 234.097L110.58 235.916L105.93 237.332L99.8652 238.747L94.0027 239.555L91.3747 239.757H85.9165L79.0431 239.151L73.3828 238.14L68.9353 236.927L63.2749 234.703L58.8275 232.48L54.3801 229.852L50.5391 227.022L47.9111 224.596L45.8895 222.776L43.4636 220.35L42.0485 218.733L40.027 216.509L37.8032 213.477L34.7709 208.221L32.1429 202.763L30.5256 198.517L28.9084 192.655L27.8976 187.399L27.2911 181.941V174.663L27.8976 169.205L28.9084 164.151L30.1213 159.501L31.5364 155.256L33.9623 150L36.5903 145.35L39.0162 141.712L41.2399 138.881L43.6658 136.051L46.496 133.019L55.1887 124.326L55.7952 123.517H56.1995V123.113L57.2102 122.102L57.8167 121.9L58.221 121.092H58.6253L59.0297 120.283H59.434L59.8383 119.474H60.2426L60.6469 118.666H61.0512L61.4555 117.857L63.0728 116.24Z" fill="#117ABB"/>
<path d="M113.41 151.011L113.612 151.617L112.197 153.234L109.973 156.671L107.951 160.512L106.739 163.747L105.323 169.205L104.515 175.067V182.345L105.121 187.197L106.132 191.24L108.154 196.496L109.771 199.73L111.995 203.369L113.814 205.795L116.24 208.625L118.059 210.445L123.72 214.892L125.741 216.307L128.571 217.924L133.423 220.148L138.679 221.765L142.116 222.574L144.946 222.978H152.022L157.075 222.372L162.332 221.159L166.173 219.744L171.226 217.318L173.45 215.903L176.28 213.881L178.1 212.466L180.728 210.243L183.962 207.21L195.687 195.485L197.102 193.868L197.507 194.07V194.677L196.698 195.485L196.294 196.294H195.889L195.485 197.102L195.081 196.9L194.879 197.507L193.464 198.72L191.442 200.337L188.41 203.369L187.197 205.189L185.782 206.199L185.175 207.008H184.771L184.569 207.817L183.154 209.03L182.143 210.04L179.515 212.264L177.695 213.881L176.28 214.892H175.876L175.472 215.701L173.652 216.712L171.833 217.924H171.226V218.329L166.375 220.553L162.736 221.968L159.097 222.978L156.671 223.585L152.022 223.787L149.394 223.989L144.542 223.787L139.69 222.978L136.658 222.17L135.647 221.563L132.21 220.755L129.582 219.34L128.369 218.935V218.531L125.539 217.116V216.712L124.528 216.307L122.709 215.094V214.69L122.102 214.488L121.092 213.881V213.477L120.283 213.073L118.464 212.062L116.442 210.243L113.612 207.412V207.008H113.208L111.792 204.784L110.782 202.965V202.561H110.377L108.76 199.933L107.143 197.102L106.132 194.474L105.526 192.857V191.24L105.121 191.038L104.717 190.229L104.515 187.601L103.908 184.367L103.706 182.547V175.472L103.908 172.237L104.313 170.418L104.717 167.992L105.323 166.577L105.93 163.949L106.536 162.129L107.143 160.512L107.547 159.299L108.356 157.48L108.962 156.469L109.367 156.267L109.569 155.458L110.58 153.639L111.792 151.819L112.197 151.415L113.41 151.011Z" fill="#117ABB"/>
<path d="M125.741 76.0107H131.806L137.062 76.4151L142.722 77.2237L145.35 77.8301V78.0323H143.531L141.712 77.8301L139.488 77.4258H138.073L136.658 77.0215L131.604 76.6172H126.348L123.72 76.8194L122.305 77.2237L118.464 77.628L116.846 78.0323L114.623 78.2345L113.208 78.8409L111.388 79.2452L107.345 80.8625L104.717 81.8733L101.887 83.2884L100.067 84.2992L98.0458 85.5121H97.6415L97.4394 86.1186L96.4286 86.3207L95.6199 87.1293L94.6092 87.938L93.1941 88.7466H92.7898L92.5876 89.3531L91.5768 90.1617L90.566 90.7682L88.9488 92.1832L88.7466 92.5876L87.7359 93.194L86.7251 94.2048H86.1186L85.7143 95.0134L84.9057 95.8221H84.5014L84.097 96.6307L82.6819 97.8436L81.6712 99.0566H81.2669L80.8625 99.8652L78.4367 102.291L76.8194 103.706L74.7978 105.323L71.3612 108.76L70.9569 108.558L86.3208 93.194L87.938 91.7789L90.9704 89.3531L93.8005 87.3315L98.0458 84.5013L101.28 82.6819L105.526 80.6603L110.377 78.8409L115.027 77.628L120.283 76.6172L123.113 76.2129L125.741 76.0107Z" fill="#117ABB"/>
<path d="M181.536 168.801L181.941 169.003L181.536 170.013L179.515 172.844L177.291 175.674L174.865 178.504L173.046 180.526L171.833 181.941L151.819 201.954L151.415 202.561H151.011L150.606 203.369L147.372 206.604L145.755 208.019L143.531 209.636L141.509 210.445L140.701 210.647H137.062L135.04 209.838L132.817 207.817L131.604 205.593L130.997 203.369L131.199 201.146L131.806 199.124L132.412 198.315L132.21 199.933L131.806 201.348V204.784L132.412 205.795L132.817 206.806L134.232 208.625L136.658 210.04L137.668 210.243L141.105 210.04L141.712 209.434V209.838L143.935 208.625L145.35 207.412H145.755V207.008H146.159V206.604L147.776 205.189L148.989 203.774L149.798 202.965H150.202V202.561H150.606V202.156H151.011L151.415 201.348L152.224 200.337L153.841 198.922L154.65 198.113H155.054V197.709L156.469 196.496L157.48 195.485L158.693 194.07H159.097V193.666H159.501V193.261H159.906V192.857H160.31V192.453H160.714V192.049H161.119L161.523 191.24L162.332 190.836L162.736 190.027L163.949 188.814H164.353V188.41L165.97 186.792H166.375V186.388L167.992 184.973L168.396 184.367H168.801V183.962H169.205V183.558H169.609L170.013 182.749L171.024 181.536H171.631L172.035 180.526L173.046 179.515L174.461 177.898L177.089 174.663L178.1 173.45L178.706 172.439L179.515 171.631L180.728 169.811L181.536 168.801Z" fill="#117ABB"/>
<path d="M215.499 198.113L216.105 198.315L215.701 199.124L192.857 221.968L191.24 223.383L188.41 225.809L184.367 228.841L179.717 231.873L176.078 233.895L174.057 234.703L174.461 233.895L175.27 233.491H175.876V233.086L175.472 232.884H176.482L178.302 231.873L179.717 231.065H180.121V230.66L181.132 230.054L183.76 228.234H184.164V227.83L184.973 227.628V227.224L185.984 226.819V226.415L187.399 225.404L188.208 225L189.42 223.585L191.038 222.17L192.453 220.755H192.857L193.261 219.946H193.666V219.542L195.081 218.531L195.283 217.924L196.294 217.52L197.507 216.307L197.911 215.499H198.315L198.517 214.892L199.124 214.69L199.326 214.084L199.933 213.881L200.943 212.871L201.55 212.668L201.954 211.86L202.561 211.051H203.167L203.369 210.243L204.38 209.434H204.784L204.986 208.625L205.795 207.817H206.402L206.806 207.008H207.21L207.412 206.402L208.625 205.391L209.232 204.582H209.636L209.838 203.774H210.445L210.849 202.965H211.253L211.456 202.156L212.668 201.146L214.084 199.528L214.892 198.72H215.296L215.499 198.113Z" fill="#117ABB"/>
<path d="M171.429 120.687H171.833L172.642 122.709L173.45 125.135L173.854 125.943L174.057 127.763L174.461 129.38L174.865 134.03V140.499L174.461 144.946L173.45 150L172.844 151.415L172.439 152.83L171.226 155.458L169.609 158.693L169.003 159.704V160.31L168.598 160.714L168.194 160.916V161.321H167.79L167.385 162.332L164.555 166.173L163.14 167.79L161.523 169.205L161.119 169.811H160.714V170.216L159.097 171.631L145.755 184.973L145.35 184.771L162.129 167.992L165.768 163.545L167.79 160.512L170.216 156.065L172.035 151.617L173.248 147.17L174.057 142.116L174.259 137.466L174.057 132.615L173.652 129.178L172.844 125.337L171.429 121.092V120.687Z" fill="#117ABB"/>
<path d="M118.868 212.871L120.081 213.275L121.9 214.69L123.315 215.701L124.124 216.509V216.914L125.135 217.116L126.752 218.127L129.178 219.542L129.987 219.946V220.35H130.593L130.391 220.957L128.167 220.755V221.159L127.358 221.361V220.755V220.148H126.55L126.752 221.159V221.765L125.337 221.361V220.957H125.741V219.744L125.135 218.733L123.72 218.127L123.113 217.52V217.116L122.102 216.914L120.283 216.105L119.07 214.084L118.666 213.881L118.868 212.871Z" fill="#117ABB"/>
<path d="M163.342 235.917H164.353L163.747 236.321L161.523 236.725H162.736V237.129L163.14 237.332L162.938 237.534L161.321 237.736L160.108 238.14L158.491 238.342L158.693 237.938L158.288 237.736L158.086 238.342L156.267 238.747L156.065 238.949L149.394 239.151L146.765 238.747L145.755 238.545L146.563 238.14L146.361 237.736L147.978 237.534H154.043L159.097 236.927L160.916 236.523L163.342 235.917Z" fill="#117ABB"/>
<path d="M189.623 125.337L190.027 126.146L190.633 130.593L190.836 133.827V140.094L190.431 144.946L189.42 150.606L188.005 156.267L186.388 160.714L184.771 164.353L184.367 164.555L184.771 162.736L185.782 160.31L187.197 156.671L187.601 155.054L188.005 153.841L188.41 151.819L188.612 151.213V149.394L189.218 147.574H189.623L189.825 143.935L190.027 142.925L190.431 138.477L190.027 129.38L189.825 129.178L189.623 125.337Z" fill="#117ABB"/>
<path d="M122.507 91.9811H133.423L137.466 92.3854L139.286 92.9919L141.509 93.3962L143.733 94.2048L142.925 94.407L139.084 93.3962L134.838 92.7897L132.21 92.5875H125.741L120.889 93.194L116.038 94.407L111.792 96.0242L111.186 96.2264L110.984 95.6199L112.803 94.6091L113.005 94.407L115.229 94.0026L115.836 93.5983L118.059 92.9919L118.868 92.7897L120.081 92.3854L122.102 92.1832L122.507 91.9811Z" fill="#117ABB"/>
<path d="M172.035 152.224L172.237 153.032L171.024 156.065L169.003 159.704V160.31L168.598 160.714L168.194 160.916V161.321H167.79L167.385 162.332L164.555 166.173L163.14 167.79L161.523 169.205L161.119 169.811H160.714V170.216L159.097 171.631L145.755 184.973L145.35 184.771L162.129 167.992L165.768 163.545L167.79 160.512L170.216 156.065L171.631 152.628L172.035 152.224Z" fill="#117ABB"/>
<path d="M101.685 138.679H102.089L101.685 140.094L100.674 141.712L99.6631 142.924L99.4609 143.531H99.0566L98.6523 144.34L98.0458 145.755L97.0351 147.17H96.6307L96.4286 147.978L95.4178 149.191L94.6092 151.415L94.0027 152.022L92.9919 154.65L91.779 157.682L91.1725 159.906L90.9704 160.714L90.5661 161.119L90.1617 160.31L91.9812 155.256L94.407 149.798L96.2264 146.563L99.2588 142.116L101.28 139.488L101.685 138.679Z" fill="#117ABB"/>
<path d="M125.741 76.0107H131.806L137.062 76.4151L142.722 77.2237L145.35 77.8301V78.0323H143.531L141.712 77.8301L139.488 77.4258H138.073L136.658 77.0215L131.604 76.6172H126.348L123.72 76.8194L122.305 77.2237L118.464 77.628L116.846 78.0323H115.027V77.628L120.283 76.6172L123.113 76.2129L125.741 76.0107Z" fill="#117ABB"/>
<path d="M134.232 207.008L135.445 207.21L135.849 208.019L136.658 208.423L136.86 208.827L137.264 208.625V209.232L139.084 209.434V209.03L141.307 208.423L143.127 207.615H144.34L144.137 208.625L142.116 209.838H141.509L141.105 210.243L137.668 210.445L135.849 209.838L134.838 209.232L134.636 207.412H134.232V207.008Z" fill="#117ABB"/>
<path d="M197.305 68.3289L197.709 68.531L193.464 71.3612L190.229 73.9892L187.601 76.4151L183.76 80.2561H183.356L183.154 80.8626L181.536 82.2776L175.067 88.7466V88.1402L175.27 87.7359H175.674L176.078 86.9272L177.493 85.31L179.111 83.8949L180.323 82.4798L181.941 81.0647L182.547 80.4582H182.951V80.0539H183.356V79.6496L184.973 78.2345L187.601 75.6065L188.814 74.1914H189.42L189.623 73.3828L190.431 72.9785L190.836 72.372L191.442 72.1698L192.251 71.3612L193.666 70.5526L196.294 68.9353L197.305 68.3289Z" fill="#117ABB"/>
<path d="M239.151 174.461H239.555L239.353 175.27L236.523 178.1L235.108 179.717L230.66 184.164L229.043 185.58L223.989 190.633H223.383L223.787 189.825H224.191L224.596 189.016H225L225.404 188.208H225.809L226.213 187.399L228.639 184.973H229.043L229.447 184.164L230.054 183.962L230.256 183.356H230.66L230.863 182.749L232.075 181.739L232.682 180.93H233.086L233.288 180.323L234.704 179.111L234.906 178.706H235.31L235.714 177.898L237.129 176.685L237.332 176.28H237.938L238.14 175.472L239.151 174.461Z" fill="#117ABB"/>
<path d="M181.536 168.801L181.941 169.003L181.536 170.013L179.515 172.844L177.291 175.674L174.865 178.504L173.046 180.526L171.833 181.941L169.003 184.771L168.396 184.367H168.801V183.962H169.205V183.558H169.609L170.013 182.749L171.024 181.536H171.631L172.035 180.526L173.046 179.515L174.461 177.898L177.089 174.663L178.1 173.45L178.706 172.439L179.515 171.631L180.728 169.811L181.536 168.801Z" fill="#117ABB"/>
<path d="M176.887 63.6792L177.291 63.8814L176.482 64.8921L175.27 65.9029L174.663 66.7115H174.259L173.854 67.5202H173.45V67.9245L172.439 68.7331L171.024 70.3504L168.194 73.1805L166.981 74.1913L166.577 74.7978H166.172L165.768 75.6064L164.96 76.415H164.555L164.151 77.2237L163.342 78.0323H162.938L163.14 77.2237L165.566 74.7978H165.97L166.172 74.1913L167.385 73.1805L168.801 71.5633L174.259 66.1051L175.876 64.69L176.887 63.6792Z" fill="#117ABB"/>
<path d="M215.499 198.113L216.105 198.315L215.701 199.124L205.795 209.03L204.987 208.625L205.795 207.817H206.402L206.806 207.008H207.21L207.412 206.402L208.625 205.391L209.232 204.582H209.636L209.838 203.774H210.445L210.849 202.965H211.253L211.456 202.156L212.668 201.146L214.084 199.528L214.892 198.72H215.296L215.499 198.113Z" fill="#117ABB"/>
<path d="M128.369 116.846L129.178 117.251L128.571 117.655H127.156L125.741 117.857V118.261L125.337 118.464L123.518 118.666L122.305 119.272L120.889 119.474L119.677 120.081L118.059 120.485H117.251V120.889L115.431 121.294L114.016 121.698H112.601V121.294L121.092 118.868L125.741 117.453L128.369 116.846Z" fill="#117ABB"/>
<path d="M189.218 147.574L189.42 148.383L189.218 149.191H189.623L189.218 151.415L188.005 156.267L186.388 160.714L184.771 164.353L184.367 164.555L184.771 162.736L185.782 160.31L187.197 156.671L187.601 155.054L188.005 153.841L188.41 151.819L188.612 151.213V149.394L189.218 147.574Z" fill="#117ABB"/>
<path d="M122.507 91.9811H124.124L123.315 92.3854L123.518 92.7897L119.879 93.3962L115.431 94.6091L111.186 96.2264L110.984 95.6199L112.803 94.6091L113.005 94.407L115.229 94.0026L115.836 93.5983L118.059 92.9919L118.868 92.7897L120.081 92.3854L122.102 92.1832L122.507 91.9811Z" fill="#117ABB"/>
<path d="M171.631 233.491L172.237 233.693L173.248 234.097L173.046 234.501L171.631 235.108L167.992 236.321H166.981L166.577 235.714L168.598 234.299L170.418 234.097L171.631 233.491Z" fill="#117ABB"/>
<path d="M111.792 121.496H112.601V121.9L110.782 122.507L109.164 122.911L105.93 123.922L105.121 124.124L102.493 124.326V124.73L99.8652 125.135V124.528L109.569 122.102L111.792 121.496Z" fill="#117ABB"/>
<path d="M174.461 139.488H174.663V142.925L174.259 145.755L173.45 149.596L173.248 150.404L172.439 152.83L171.833 152.426L172.439 150.202L173.652 145.148L174.259 139.69L174.461 139.488Z" fill="#117ABB"/>
<path d="M61.6577 118.666L61.8598 119.07H62.2641L61.8598 120.081L60.0404 122.305L59.6361 122.709H59.0296V123.518L57.6145 124.326L57.2102 125.135H56.8059L56.6038 125.539L56.4016 124.73H56.8059L57.2102 123.518L57.8167 123.315L58.221 122.507H58.8275L58.6253 121.9L59.434 121.496L60.0404 120.485L61.4555 119.07L61.6577 118.666Z" fill="#117ABB"/>
<path d="M63.0728 116.24L63.4771 116.442L61.6577 118.261L60.2426 119.879L57.6146 122.507H57.2103L56.8059 123.315H56.4016L55.9973 124.528L55.3908 124.73V125.135L54.5822 125.539L51.3477 128.774V128.167L55.1887 124.326L55.7952 123.517H56.1995V123.113L57.2103 122.102L57.8167 121.9L58.221 121.092H58.6253L59.0297 120.283H59.434L59.8383 119.474H60.2426L60.6469 118.666H61.0512L61.4555 117.857L63.0728 116.24Z" fill="#117ABB"/>
<path d="M133.827 76.2129L137.062 76.415L142.722 77.2237L145.35 77.8301V78.0323H143.531L141.712 77.8301L139.488 77.4258H138.073L136.658 77.0215L131.604 76.6172V76.415L133.827 76.2129Z" fill="#117ABB"/>
<path d="M134.232 207.008L135.445 207.21L135.849 208.019L136.658 208.423L136.86 208.827L137.264 208.625V209.232H138.275L138.477 210.243L139.286 210.445H137.668L135.849 209.838L134.838 209.232L134.636 207.412H134.232V207.008Z" fill="#117ABB"/>
<path d="M143.329 186.792L143.733 187.197L142.722 187.803L140.701 189.825L139.892 191.038L139.084 191.846L138.477 192.049L137.466 193.464L136.051 194.677L135.04 195.89L133.423 197.305L132.817 197.709L133.221 196.9L136.051 193.868L142.925 186.995L143.329 186.792Z" fill="#117ABB"/>
<path d="M70.7547 108.76V109.367L68.531 111.792L67.9245 112.803L67.1159 113.612H66.7116L66.3073 114.421H65.903L65.4987 115.229L64.0836 116.038L63.4771 116.24L63.6793 115.633L65.2965 114.218L70.7547 108.76Z" fill="#117ABB"/>
<path d="M163.342 235.917H164.353L163.747 236.321L161.523 236.725H162.736V237.129L163.14 237.332L162.938 237.534L161.321 237.736L160.108 238.14L158.491 238.342L158.693 237.938L158.288 237.736L158.086 238.342L157.48 238.14L158.086 237.938V237.534H159.097L159.299 236.927L160.916 236.523L163.342 235.917Z" fill="#117ABB"/>
<path d="M229.65 183.962H230.054L229.852 184.771L223.989 190.633H223.383L223.787 189.825H224.191L224.596 189.016H225L225.404 188.208H225.809L226.213 187.399L228.639 184.973H229.043L229.447 184.164L229.65 183.962Z" fill="#117ABB"/>
<path d="M210.445 47.3046H212.264L211.456 47.7089L207.817 48.3153L205.795 48.9218L203.774 49.3261L202.763 49.7304L200.943 50.1348L200.135 50.5391H199.326V50.1348L202.358 49.124L209.232 47.5067L210.445 47.3046Z" fill="#117ABB"/>
<path d="M197.102 193.868L197.507 194.07V194.677L196.698 195.485L196.294 196.294H195.889L195.485 197.102L195.081 196.9L194.879 197.507L193.464 198.72L192.251 199.528L192.453 198.72L195.687 195.485L197.102 193.868Z" fill="#117ABB"/>
<path d="M180.121 230.66L180.728 230.863L179.717 231.873L176.078 233.895L174.057 234.704L174.461 233.895L175.27 233.491H175.876V233.086L175.472 232.884H176.482L178.302 231.873L179.717 231.065H180.121V230.66Z" fill="#117ABB"/>
<path d="M173.45 178.908L173.854 179.11L173.652 179.919L172.035 181.536L170.62 183.154L169.003 184.771L168.396 184.367H168.801V183.962H169.205V183.558H169.609L170.013 182.749L171.024 181.536H171.631L172.035 180.526L173.046 179.515L173.45 178.908Z" fill="#117ABB"/>
<path d="M126.752 234.501L127.763 234.906H129.178L130.593 235.31V235.714H130.997L131.199 235.31V235.916H131.604L131.402 236.523L129.582 236.321L127.156 235.31V234.906H126.752V234.501Z" fill="#117ABB"/>
<path d="M171.631 233.491L172.237 233.693L173.248 234.097L173.046 234.501L171.631 235.108L169.811 235.512L168.801 235.31L169.407 234.906L170.418 234.299L171.024 233.693L171.631 233.491Z" fill="#117ABB"/>
<path d="M186.995 157.278L187.399 158.086L185.782 162.129L184.569 164.555L184.367 163.949L185.175 161.725L186.59 158.288L186.995 157.278Z" fill="#117ABB"/>
<path d="M198.518 50.3369H199.124V50.7412L196.092 51.752L194.07 52.5606L191.038 53.9757L190.431 54.38L189.825 54.1779L193.666 52.1563L198.518 50.3369Z" fill="#117ABB"/>
<path d="M149.191 238.342H149.596V238.747L151.415 238.544H154.043L154.852 238.342H156.873L156.065 238.949L149.394 239.151L148.181 238.949L148.585 238.544L149.191 238.342Z" fill="#117ABB"/>
<path d="M117.655 119.879L118.059 120.081V120.485H117.251V120.889L115.431 121.294L114.016 121.698H112.601V121.294L117.655 119.879Z" fill="#117ABB"/>
<path d="M115.836 220.553L116.846 220.755L117.251 221.766L117.049 222.574L115.836 222.372L115.027 222.574V221.968L115.229 221.563H115.633L115.836 220.553Z" fill="#117ABB"/>
<path d="M232.884 48.1132L234.704 48.3153L239.151 49.5283L240.768 50.1347L240.364 50.3369L235.714 49.1239L233.693 48.9218L232.884 48.5175V48.1132Z" fill="#117ABB"/>
<path d="M77.0216 102.493L77.4259 102.695L76.8194 103.706L74.7978 105.323L71.3612 108.76L70.9569 108.558L77.0216 102.493Z" fill="#117ABB"/>
<path d="M159.299 103.504L160.108 103.908L162.534 106.132V106.536H162.938V106.941H163.342L165.566 109.771L165.364 110.175L162.736 107.143L159.299 103.706V103.504Z" fill="#117ABB"/>
<path d="M142.925 207.615H144.34L144.137 208.625L142.116 209.838H141.712L142.318 208.019L142.925 207.615Z" fill="#117ABB"/>
<path d="M174.461 139.488H174.663V142.925L174.259 145.755L173.652 145.553L174.259 139.69L174.461 139.488Z" fill="#117ABB"/>
<path d="M91.5768 156.267H92.1833L91.9812 157.278L91.1725 159.906L90.9704 160.714L90.5661 161.119L90.1617 160.31L91.5768 156.267Z" fill="#117ABB"/>
<path d="M147.574 203.369L148.787 203.571V204.178L147.372 204.784L146.766 204.987V205.391L145.148 205.997L144.744 206.199L145.148 205.391L146.563 204.38L147.574 203.369Z" fill="#117ABB"/>
<path d="M132.21 198.315L132.412 199.124L131.806 201.348L131.604 204.784L131.199 204.38L130.997 202.156L131.604 199.528L132.21 198.315Z" fill="#117ABB"/>
<path d="M171.429 120.687H171.833L172.642 122.709L173.45 125.135L173.854 125.943V127.156H173.652V126.146H173.046L172.035 122.709L171.429 120.687Z" fill="#117ABB"/>
<path d="M162.129 78.2345L162.534 78.4367L161.119 80.0539L160.714 80.6604H160.31L160.108 81.469L159.906 81.8733L158.895 82.4798L157.884 82.8841L159.097 81.469L161.523 78.841L162.129 78.2345Z" fill="#117ABB"/>
<path d="M132.615 236.119H133.221V236.523L133.827 236.321L134.838 236.927H136.253V237.332L134.434 237.534L131.806 236.725V236.321L132.615 236.119Z" fill="#117ABB"/>
<path d="M189.623 125.337L190.027 126.146L190.633 130.593L190.431 134.232H190.229L190.027 129.38L189.825 129.178L189.623 125.337Z" fill="#117ABB"/>
<path d="M122.507 91.9811H124.124L123.315 92.3854L123.518 92.7897L119.677 93.3962L120.081 92.3854L122.102 92.1832L122.507 91.9811Z" fill="#117ABB"/>
<path d="M128.369 116.846L129.178 117.251L128.571 117.655H127.156L125.741 117.857V118.261L125.337 118.464H123.72V118.059L128.369 116.846Z" fill="#117ABB"/>
<path d="M174.663 134.03H174.865V140.499L174.259 139.69V135.849H174.461L174.663 134.03Z" fill="#117ABB"/>
<path d="M136.658 92.3855L138.073 92.5877L139.286 92.992L141.509 93.3963L143.733 94.2049L142.924 94.4071L139.084 93.3963L136.658 92.992V92.3855Z" fill="#117ABB"/>
<path d="M152.426 199.73L152.628 200.337H152.224L151.819 201.146L151.011 202.156H150.606V202.561L149.191 202.965V202.561L150.404 201.55H150.809L151.011 200.943L151.213 200.539H151.617L151.819 200.135L152.426 199.73Z" fill="#117ABB"/>
<path d="M135.647 117.857L136.253 118.059L136.658 119.879L136.253 123.922L135.849 124.933L135.647 124.326L136.051 121.092L136.253 119.07H135.647V117.857Z" fill="#117ABB"/>
<path d="M125.741 76.0107H127.156L126.954 76.4151L126.348 76.6172L123.72 76.8194L122.305 77.2237H121.294L122.102 76.8194L123.113 76.4151V76.2129L125.741 76.0107Z" fill="#117ABB"/>
<path d="M165.566 74.7979H166.172L165.768 75.6065L164.96 76.4151H164.555L164.151 77.2237L163.342 78.0324H162.938L163.14 77.2237L165.566 74.7979Z" fill="#117ABB"/>
<path d="M197.305 68.3289L197.709 68.531L192.251 72.1698L192.655 71.3612L194.879 69.744L197.305 68.3289Z" fill="#117ABB"/>
<path d="M181.536 168.801L181.941 169.003L181.536 170.013L180.121 172.035L179.313 171.833L180.526 170.216L181.334 169.003L181.536 168.801Z" fill="#117ABB"/>
<path d="M55.1887 124.326L55.9973 124.528L55.3908 124.73V125.135L54.5822 125.539L51.3477 128.774V128.167L55.1887 124.326Z" fill="#117ABB"/>
<path d="M55.9973 130.997L57.2102 131.402L56.8059 132.412L55.7952 132.615L55.593 133.019L55.3908 132.615L55.593 131.199L55.9973 130.997Z" fill="#117ABB"/>
<path d="M210.445 47.3046H212.264L211.456 47.7089L207.817 48.3153L206.806 48.5175L206.604 48.1132L210.445 47.3046Z" fill="#117ABB"/>
<path d="M165.97 235.108L166.375 235.31L165.97 236.119L165.566 236.725L164.353 237.129H163.14V236.927L164.353 236.523L164.757 235.714L165.97 235.108Z" fill="#117ABB"/>
<path d="M70.7547 108.76V109.367L68.531 111.792L67.5202 112.601L67.7224 111.792L70.7547 108.76Z" fill="#117ABB"/>
<path d="M141.105 77.0216L144.542 77.6281L145.35 78.0324H143.531L141.712 77.8302L139.892 77.4259V77.2238L141.105 77.0216Z" fill="#117ABB"/>
<path d="M228.639 47.3046L231.267 47.5067L232.682 47.911V48.3153L230.458 48.1132L228.639 47.7089V47.3046Z" fill="#117ABB"/>
<path d="M140.094 209.232H141.712L141.509 210.04L140.701 210.243L138.881 210.04L138.679 209.636L140.094 209.232Z" fill="#117ABB"/>
<path d="M172.844 149.596H173.248L173.45 150.202L172.844 151.415L172.439 152.83L171.833 152.426L172.439 150.202L172.844 149.596Z" fill="#117ABB"/>
<path d="M59.434 129.987H60.6469L60.2426 130.795L59.0296 131.2L57.8167 130.593L58.0189 130.189L59.434 129.987Z" fill="#117ABB"/>
<path d="M167.79 160.917L167.992 161.321L166.577 163.545L165.364 164.353L165.768 163.545L167.385 161.321L167.79 160.917Z" fill="#117ABB"/>
<path d="M51.5499 129.582H51.752V130.593L50.7413 131.806L49.9326 132.615L49.7305 132.008L49.9326 131.402H50.3369V130.795H50.7413V130.391H51.1456V129.987H51.5499V129.582Z" fill="#117ABB"/>
<path d="M121.698 76.415H123.518L122.911 76.8194L121.294 77.2237H119.474L119.677 76.8194L121.698 76.415Z" fill="#117ABB"/>
<path d="M204.987 208.828H205.593L205.189 209.636L203.774 211.051L203.167 210.849L203.571 210.04L204.38 209.434H204.784L204.987 208.828Z" fill="#117ABB"/>
<path d="M196.496 195.081L196.698 195.485L196.294 196.294H195.889L195.485 197.102L195.081 196.9L194.879 197.507L193.868 198.315V197.709L196.496 195.081Z" fill="#117ABB"/>
<path d="M173.45 178.908L173.854 179.11L173.652 179.919L171.833 181.739L171.631 181.132L173.046 179.515L173.45 178.908Z" fill="#117ABB"/>
<path d="M222.978 190.633L223.585 191.038L221.563 193.059L221.159 192.857L221.361 192.251L222.372 191.24L222.978 190.633Z" fill="#117ABB"/>
<path d="M143.329 186.792L143.733 187.197L142.722 187.803L140.701 189.825L140.297 190.431L139.69 190.229L142.925 186.995L143.329 186.792Z" fill="#117ABB"/>
<path d="M262.399 121.092H262.601V122.507L261.59 125.135H261.186L261.388 123.922L262.399 121.092Z" fill="#117ABB"/>
<path d="M248.248 72.7762L249.057 73.1806L250.674 74.5957L252.089 75.8086L251.887 76.2129L250.27 74.7978L248.248 72.9784V72.7762Z" fill="#117ABB"/>
<path d="M247.237 166.375L247.642 166.577L247.237 167.385L246.024 168.598L245.216 168.396H245.62V167.992H246.024L246.429 167.183H246.833L247.237 166.375Z" fill="#117ABB"/>
<path d="M109.771 204.38L110.782 204.784L111.186 205.997L110.984 206.604L110.579 205.795L110.175 206.199L109.771 205.391V204.38Z" fill="#117ABB"/>
<path d="M232.884 48.1132L234.704 48.3153L236.119 48.7196V48.9218H233.693L232.884 48.5175V48.1132Z" fill="#117ABB"/>
<path d="M172.035 152.224L172.237 153.032L171.429 154.852L170.822 155.054L171.429 153.235L172.035 152.224Z" fill="#117ABB"/>
<path d="M63.0728 125.135L63.8814 125.741L62.8706 126.146L62.4663 126.752H61.4555L62.062 126.55L62.4663 125.337L63.0728 125.135Z" fill="#117ABB"/>
<path d="M77.0216 102.493L77.4259 102.695L76.8194 103.706L75.2022 104.919L74.7979 104.717L77.0216 102.493Z" fill="#117ABB"/>
<path d="M137.062 209.434L138.073 209.636L138.477 209.838V210.243L139.286 210.445H137.668L136.658 210.243L137.062 209.434Z" fill="#117ABB"/>
<path d="M135.243 194.677L135.647 195.081L133.019 197.709V197.102L135.243 194.677Z" fill="#117ABB"/>
<path d="M187.803 154.448L188.208 155.256L187.601 157.48L187.197 157.682L187.399 155.458L187.803 154.448Z" fill="#117ABB"/>
<path d="M95.2156 148.787L95.4178 149.191L94.6092 151.415L94.0027 151.011L94.407 149.798L94.8113 148.989L95.2156 148.787Z" fill="#117ABB"/>
<path d="M172.844 123.72H173.046L173.652 125.539L173.854 125.943V127.156H173.652V126.146H173.046L172.642 124.731L172.844 123.72Z" fill="#117ABB"/>
<path d="M162.736 106.739L163.342 106.941L165.566 109.771L165.364 110.175L162.736 107.143V106.739Z" fill="#117ABB"/>
<path d="M179.515 61.2534L179.919 61.4556L177.493 63.8815L177.089 63.4771L179.515 61.2534Z" fill="#117ABB"/>
<path d="M135.04 126.954L135.445 127.156L135.04 128.976L134.636 130.391L134.232 130.189L134.636 128.571L134.838 127.561L135.04 126.954Z" fill="#117ABB"/>
<path d="M263.41 117.251L263.612 118.059L263.41 119.879L262.803 121.092L262.601 120.283L263.41 117.251Z" fill="#117ABB"/>
<path d="M133.827 76.2129H135.04L135.243 76.8194H133.221L131.604 76.6172V76.415L133.827 76.2129Z" fill="#117ABB"/>
<path d="M142.925 207.615H144.34V208.423L142.52 208.625L142.318 208.019L142.925 207.615Z" fill="#117ABB"/>
<path d="M67.1159 112.803L67.5202 113.005L67.1159 113.612H66.7116L66.3073 114.42H65.903L65.4987 115.229L64.8922 115.431L65.0943 114.825H65.4987L65.903 114.016L66.7116 113.208H67.1159V112.803Z" fill="#117ABB"/>
<path d="M201.752 49.3262L202.763 49.5283V49.7305L200.943 50.1348L200.135 50.5391H199.326V50.1348L201.752 49.3262Z" fill="#117ABB"/>
<path d="M57.4124 121.9L57.8167 122.102L57.6146 122.507H57.2102L56.8059 123.315H56.4016L56.1995 124.326H55.3908L55.7952 123.518H56.1995V123.113L57.2102 122.102L57.4124 121.9Z" fill="#117ABB"/>
<path d="M175.472 232.884L176.28 233.086L175.876 233.491V233.086L175.472 232.884ZM175.27 233.491H175.876L175.674 234.097L174.057 234.703L174.461 233.895L175.27 233.491Z" fill="#117ABB"/>
<path d="M173.248 126.146H173.652L174.057 127.763V128.976L173.652 129.178L173.248 126.954V126.146Z" fill="#117ABB"/>
<path d="M186.995 157.278L187.399 158.086L186.59 159.906H186.388L186.59 158.288L186.995 157.278Z" fill="#117ABB"/>
<path d="M264.016 149.596H264.42L264.016 150.404L262.601 151.819L262.197 151.415L263.005 151.011L263.41 150.202H263.814L264.016 149.596Z" fill="#117ABB"/>
<path d="M189.825 146.361H190.027L189.825 148.585L189.623 149.191H189.218L189.42 147.574L189.825 146.361Z" fill="#117ABB"/>
<path d="M267.251 145.552L267.453 146.361L266.24 147.776L265.633 147.574L266.644 146.361H267.049L267.251 145.552Z" fill="#117ABB"/>
<path d="M252.089 76.2129L252.898 76.6172L254.313 78.2345L254.11 78.6388L252.695 77.2237V76.8194L252.089 76.6172V76.2129Z" fill="#117ABB"/>
<path d="M130.391 116.442L130.997 116.644L130.795 117.048L129.178 117.251L128.571 117.048L130.391 116.442Z" fill="#117ABB"/>
<path d="M220.553 193.261L220.957 193.666L220.148 194.677H219.744V195.081H219.34L219.542 194.07L220.553 193.261Z" fill="#117ABB"/>
<path d="M86.3208 114.623L86.5229 115.229H86.1186V115.633L85.5121 116.038H84.9057L85.31 115.027L85.9165 114.825L86.3208 115.027V114.623Z" fill="#117ABB"/>
</svg>
